<svg xmlns="http://www.w3.org/2000/svg" width="67" height="33.572" viewBox="0 0 67 33.572">
  <g id="Group_5" data-name="Group 5" transform="translate(-113 -494.417)">
    <text id="الموفراتي" transform="translate(113 512.417)" fill="#e2dada" font-size="17" font-family="SegoeUI, Segoe UI"><tspan x="0" y="0">الموفراتي</tspan></text>
    <g id="Group_1" data-name="Group 1" transform="translate(116.282 519.624)">
      <path id="Path_3" data-name="Path 3" d="M202.11,506.595a1.645,1.645,0,0,0,.555-.089.972.972,0,0,0,.415-.3,1.521,1.521,0,0,0,.258-.549,3.381,3.381,0,0,0,.089-.839,5.272,5.272,0,0,0-.137-1.142,6.968,6.968,0,0,0-.386-1.186h.418c.073.182.137.37.2.568s.105.4.147.6.073.4.1.6a5.581,5.581,0,0,1,.032.565,3.719,3.719,0,0,1-.118.992,1.86,1.86,0,0,1-.319.676,1.276,1.276,0,0,1-.51.386,1.684,1.684,0,0,1-.638.121" transform="translate(-202.11 -498.628)" fill="#e7e2e1"/>
      <path id="Path_4" data-name="Path 4" d="M217.547,496.989h-.083a53.666,53.666,0,0,1-5.7-.195,1.241,1.241,0,0,1-.29-.883V490.7h.351v4.963a2.373,2.373,0,0,0,.048.52.654.654,0,0,0,.153.319.568.568,0,0,0,.287.156c.121.025,5.055-.061,5.23-.061Z" transform="translate(-208.486 -490.598)" fill="#e7e2e1"/>
      <path id="Path_5" data-name="Path 5" d="M230.534,501.364l.239-.08c.083-.026.169-.045.255-.064a2.422,2.422,0,0,1,.258-.041,1.632,1.632,0,0,1,.249-.019,2.327,2.327,0,0,1,.447.045c.15.029.3.067.456.112l.466.144c.156.051.319.1.478.147s.319.083.494.115a3.151,3.151,0,0,0,.52.051l-.064.376a1.13,1.13,0,0,0-.287.08,1.478,1.478,0,0,0-.293.166,1.537,1.537,0,0,0,.277.979,1.039,1.039,0,0,0,.864.341v.4h-.083a1.514,1.514,0,0,1-.584-.105,1.068,1.068,0,0,1-.415-.319,1.359,1.359,0,0,1-.252-.491,2.709,2.709,0,0,1-.1-.66,3.038,3.038,0,0,0-.367.242l-.434.319c-.156.115-.319.23-.507.348a4.579,4.579,0,0,1-.59.319,3.666,3.666,0,0,1-.682.233,3.213,3.213,0,0,1-.781.092h-.207c-.195,0-.293-.07-.293-.207a.172.172,0,0,1,.077-.144.367.367,0,0,1,.217-.051h.172a3.605,3.605,0,0,0,.785-.083,3.776,3.776,0,0,0,.663-.223,4.382,4.382,0,0,0,.577-.319c.182-.118.36-.239.536-.36l.539-.367a4.237,4.237,0,0,1,.59-.319V502a3.824,3.824,0,0,1-.536-.115l-.558-.137c-.188-.051-.376-.1-.561-.134a2.6,2.6,0,0,0-.545-.057,2.508,2.508,0,0,0-.265.016,1.577,1.577,0,0,0-.274.038c-.089.016-.179.035-.262.057s-.153.041-.217.064Zm2.392,3.974h-.459V504.9h.45Z" transform="translate(-220.833 -497.722)" fill="#e7e2e1"/>
      <path id="Path_6" data-name="Path 6" d="M250.76,500.628a1.1,1.1,0,0,0,.054.351.542.542,0,0,0,.166.239.807.807,0,0,0,.3.14,1.916,1.916,0,0,0,.447.045v.4h-.2a1.274,1.274,0,0,1-.319-.038,1.417,1.417,0,0,1-.271-.108.957.957,0,0,1-.22-.169.708.708,0,0,1-.147-.214h-.016a.912.912,0,0,1-.338.383,1.139,1.139,0,0,1-.612.147h-7.466a.37.37,0,0,1-.217-.051.188.188,0,0,1-.041-.258.236.236,0,0,1,.041-.038.4.4,0,0,1,.217-.054h.4c.287,0,7.517-.061,7.654-.182a.73.73,0,0,0,.211-.593v-1.776h.351Zm-.367-2.421h-.459v-.437h.459Zm.829,0h-.462v-.437h.462Z" transform="translate(-229.171 -495.413)" fill="#e7e2e1"/>
      <path id="Path_7" data-name="Path 7" d="M270.672,496.373c.175,0,2.87-.016,3-.048a.612.612,0,0,0,.29-.153.6.6,0,0,0,.156-.281,1.636,1.636,0,0,0,.048-.431V490.38h.335v5.135a1.913,1.913,0,0,1-.077.571.9.9,0,0,1-.233.392.983.983,0,0,1-.4.223c-.163.048-2.905.07-3.129.07h-.319a.51.51,0,0,1-.217-.035c-.051-.019-.073-.077-.073-.166s.022-.144.073-.166a.507.507,0,0,1,.217-.032Z" transform="translate(-248.382 -490.38)" fill="#e7e2e1"/>
      <path id="Path_8" data-name="Path 8" d="M287.19,490.38h.351v6.334h-.351Z" transform="translate(-260.055 -490.38)" fill="#e7e2e1"/>
      <path id="Path_9" data-name="Path 9" d="M303.576,501.639a2.145,2.145,0,0,1-.4.124,2.231,2.231,0,0,1-.437.041,1.384,1.384,0,0,1-.507-.089,1.358,1.358,0,0,1-.424-.252,1.192,1.192,0,0,1-.293-.386,1.094,1.094,0,0,1-.108-.491,1.368,1.368,0,0,1,.1-.507,1.662,1.662,0,0,1,.262-.456,1.442,1.442,0,0,1,.383-.319.925.925,0,0,1,.456-.124.864.864,0,0,1,.571.2,1.875,1.875,0,0,1,.424.549,2.51,2.51,0,0,1,.255.759,4.655,4.655,0,0,1,.07.816,3.059,3.059,0,0,1-.14.957,1.6,1.6,0,0,1-.443.676,1.875,1.875,0,0,1-.765.4c-.319.086-5.785.128-6.219.128q-2.191,0-2.191-1.837a3.221,3.221,0,0,1,.032-.555c.032-.182.051-.4.092-.619h.319c-.032.207-.054.4-.073.574s-.022.335-.026.485a2.141,2.141,0,0,0,.105.7,1.1,1.1,0,0,0,.319.485,1.5,1.5,0,0,0,.587.284c.239.061,5.629.092,5.97.092a4.236,4.236,0,0,0,.919-.089,1.569,1.569,0,0,0,.638-.281,1.183,1.183,0,0,0,.367-.507A2.612,2.612,0,0,0,303.576,501.639Zm-.029-.376a2.549,2.549,0,0,0-.1-.66,2.171,2.171,0,0,0-.217-.536,1.171,1.171,0,0,0-.3-.36.536.536,0,0,0-.341-.131.587.587,0,0,0-.3.08.845.845,0,0,0-.252.211,1.1,1.1,0,0,0-.239.682.849.849,0,0,0,.073.354.753.753,0,0,0,.2.268.928.928,0,0,0,.319.175,1.248,1.248,0,0,0,.392.061,1.882,1.882,0,0,0,.769-.143Zm-1.241-3.055h-.462v-.437h.462Zm.826,0h-.459v-.437h.459Z" transform="translate(-264.806 -495.413)" fill="#e7e2e1"/>
      <path id="Path_10" data-name="Path 10" d="M324.323,506.067a1.471,1.471,0,0,0,.239.067l.287.054c.1,0,.207.026.319.032s3.409,0,3.508,0a2.388,2.388,0,0,0,.542-.051,1.135,1.135,0,0,0,.4-.166.957.957,0,0,0,.274-.319,1.947,1.947,0,0,0,.182-.456,1.659,1.659,0,0,1,.045-.207q.024-.128.038-.287h-.711a1.826,1.826,0,0,1-.638-.1,1.317,1.317,0,0,1-.443-.271,1.09,1.09,0,0,1-.268-.389,1.136,1.136,0,0,1-.089-.459,1.391,1.391,0,0,1,.1-.507,1.7,1.7,0,0,1,.265-.453,1.34,1.34,0,0,1,.383-.319.874.874,0,0,1,.456-.124.839.839,0,0,1,.571.2,1.853,1.853,0,0,1,.421.545,1.958,1.958,0,0,1,.147.348,3.052,3.052,0,0,1,.1.383c.026.128.048.258.061.389s.019.252.022.36h.517v.4h-.526a3.269,3.269,0,0,1-.166.858,1.6,1.6,0,0,1-.357.58,1.369,1.369,0,0,1-.555.319,2.36,2.36,0,0,1-.759.105c-.23,0-3.636,0-3.85-.051l-.108-.019a.507.507,0,0,1-.408-.494Zm5.671-2.717a2.084,2.084,0,0,0-.153-.319,1.335,1.335,0,0,0-.188-.258,1.032,1.032,0,0,0-.217-.172.513.513,0,0,0-.236-.064.609.609,0,0,0-.3.08.854.854,0,0,0-.252.214,1.03,1.03,0,0,0-.172.319.957.957,0,0,0-.064.37.778.778,0,0,0,.073.351.759.759,0,0,0,.211.271.983.983,0,0,0,.335.172,1.5,1.5,0,0,0,.447.061h.683v-.223a1.837,1.837,0,0,0-.029-.255,2.722,2.722,0,0,0-.054-.271,1.794,1.794,0,0,0-.077-.255Z" transform="translate(-285.337 -498.368)" fill="#e7e2e1"/>
      <path id="Path_11" data-name="Path 11" d="M353.51,501.777v.9a1.049,1.049,0,0,0,.242.756.985.985,0,0,0,.724.246,1.221,1.221,0,0,0,.386-.061.775.775,0,0,0,.293-.179.813.813,0,0,0,.191-.319,1.368,1.368,0,0,0,.067-.453v-.906h.351v.915a1,1,0,0,0,.262.769,1.091,1.091,0,0,0,.759.239.877.877,0,0,0,.673-.233,1.091,1.091,0,0,0,.207-.737V501.12h.351v1.595a1.786,1.786,0,0,1-.089.593,1.151,1.151,0,0,1-.249.427,1.033,1.033,0,0,1-.392.255,1.412,1.412,0,0,1-.513.086,1.442,1.442,0,0,1-.756-.172,1.148,1.148,0,0,1-.427-.462h-.016a1.254,1.254,0,0,1-.437.475,1.222,1.222,0,0,1-.66.159,1.816,1.816,0,0,1-.37-.035,1.3,1.3,0,0,1-.319-.1.956.956,0,0,1-.258-.188.864.864,0,0,1-.185-.277h-.016a.979.979,0,0,1-.392.478c-.166.1-11.533.144-11.778.144h-.418c-.195,0-.29-.067-.29-.2a.16.16,0,0,1,.073-.143.373.373,0,0,1,.217-.054h.319c.319,0,11.711-.073,11.867-.22a.979.979,0,0,0,.236-.746v-.957Z" transform="translate(-296.328 -497.695)" fill="#e7e2e1"/>
    </g>
  </g>
</svg>
