<svg xmlns="http://www.w3.org/2000/svg" width="77.928" height="76.743" viewBox="0 0 77.928 76.743">
  <path id="Path_2" data-name="Path 2" d="M344.39,317c-.06-6.61-.18-13-.2-14.23,0-1.88-.05-3.77-.13-5.67-.26-7.34-1.13-14.68-4.85-21.19a39.26,39.26,0,0,0-33.87-19.55c-21.45,0-38.83,17.15-38.83,38.3a38.68,38.68,0,0,0,24.18,35.48c7.2,2.89,15.14,3.07,22.8,2.93,4.91-.1,9.82-.11,14.72-.1h9.87q3,.15,6.09,0C344.48,332.94,344.47,324.83,344.39,317Zm-32.58,0a23.759,23.759,0,0,1-7,1.06h-.23a23.33,23.33,0,1,1,7.23-1.05Z" transform="translate(-266.51 -256.36)" fill="#e2dada"/>
</svg>
