<svg id="Group_1" data-name="Group 1" xmlns="http://www.w3.org/2000/svg" width="193.421" height="26.23" viewBox="0 0 193.421 26.23">
  <path id="Path_3" data-name="Path 3" d="M202.11,515.36a5.16,5.16,0,0,0,1.74-.28,3.05,3.05,0,0,0,1.3-.94,4.77,4.77,0,0,0,.81-1.72,10.6,10.6,0,0,0,.28-2.63,16.529,16.529,0,0,0-.43-3.58,21.851,21.851,0,0,0-1.21-3.72h1.31c.23.57.43,1.16.62,1.78s.33,1.25.46,1.88.23,1.25.3,1.87a17.5,17.5,0,0,1,.1,1.77,11.66,11.66,0,0,1-.37,3.11,5.83,5.83,0,0,1-1,2.12,4,4,0,0,1-1.6,1.21,5.28,5.28,0,0,1-2,.38" transform="translate(-202.11 -490.38)" fill="#e7e2e1"/>
  <path id="Path_4" data-name="Path 4" d="M230.52,510.42h-.26c-1.3,0-17.26,0-17.87-.61a3.89,3.89,0,0,1-.91-2.77V490.7h1.1v15.56a7.442,7.442,0,0,0,.15,1.63,2.05,2.05,0,0,0,.48,1,1.78,1.78,0,0,0,.9.49c.38.08,15.85-.19,16.4-.19Z" transform="translate(-202.11 -490.38)" fill="#e7e2e1"/>
  <path id="Path_5" data-name="Path 5" d="M232.53,501.8l.75-.25c.26-.08.53-.14.8-.2a7.579,7.579,0,0,1,.81-.13,5.115,5.115,0,0,1,.78-.06,7.3,7.3,0,0,1,1.4.14c.47.09.94.21,1.43.35l1.46.45c.49.16,1,.32,1.5.46s1,.26,1.55.36a9.888,9.888,0,0,0,1.63.16l-.2,1.18a3.539,3.539,0,0,0-.9.25,4.632,4.632,0,0,0-.92.52,4.82,4.82,0,0,0,.87,3.07,3.26,3.26,0,0,0,2.71,1.07v1.26h-.26a4.75,4.75,0,0,1-1.83-.33,3.35,3.35,0,0,1-1.3-1,4.26,4.26,0,0,1-.79-1.54,8.489,8.489,0,0,1-.31-2.07,9.517,9.517,0,0,0-1.15.76l-1.36,1c-.49.36-1,.72-1.59,1.09a14.339,14.339,0,0,1-1.85,1,11.488,11.488,0,0,1-2.14.73,10.071,10.071,0,0,1-2.45.29h-.65c-.61,0-.92-.22-.92-.65a.54.54,0,0,1,.24-.45,1.15,1.15,0,0,1,.68-.16h.54a11.3,11.3,0,0,0,2.46-.26,11.833,11.833,0,0,0,2.08-.7,13.736,13.736,0,0,0,1.81-1c.57-.37,1.13-.75,1.68-1.13l1.69-1.15a13.279,13.279,0,0,1,1.85-1v-.07a12,12,0,0,1-1.68-.36L239.2,503c-.59-.16-1.18-.3-1.76-.42a8.139,8.139,0,0,0-1.71-.18,7.866,7.866,0,0,0-.83.05,4.948,4.948,0,0,0-.86.12c-.28.05-.56.11-.82.18s-.48.13-.68.2Zm7.5,12.46h-1.44v-1.37H240Z" transform="translate(-202.11 -490.38)" fill="#e7e2e1"/>
  <path id="Path_6" data-name="Path 6" d="M269.8,506.73a3.46,3.46,0,0,0,.17,1.1,1.7,1.7,0,0,0,.52.75,2.531,2.531,0,0,0,.94.44,6,6,0,0,0,1.4.14v1.26h-.63a4,4,0,0,1-1-.12,4.442,4.442,0,0,1-.85-.34,3,3,0,0,1-.69-.53,2.22,2.22,0,0,1-.46-.67h-.05a2.86,2.86,0,0,1-1.06,1.2,3.57,3.57,0,0,1-1.92.46H242.76a1.16,1.16,0,0,1-.68-.16.59.59,0,0,1-.13-.81.742.742,0,0,1,.13-.12,1.251,1.251,0,0,1,.68-.17H244c.9,0,23.57-.19,24-.57a2.29,2.29,0,0,0,.66-1.86v-5.57h1.1Zm-1.15-7.59h-1.44v-1.37h1.44Zm2.6,0H269.8v-1.37h1.45Z" transform="translate(-202.11 -490.38)" fill="#e7e2e1"/>
  <path id="Path_7" data-name="Path 7" d="M272,509.17c.55,0,9-.05,9.4-.15a1.919,1.919,0,0,0,.91-.48,1.88,1.88,0,0,0,.49-.88,5.131,5.131,0,0,0,.15-1.35V490.38H284v16.1a6,6,0,0,1-.24,1.79,2.81,2.81,0,0,1-.73,1.23,3.08,3.08,0,0,1-1.26.7c-.51.15-9.11.22-9.81.22h-1a1.6,1.6,0,0,1-.68-.11c-.16-.06-.23-.24-.23-.52s.07-.45.23-.52a1.59,1.59,0,0,1,.68-.1Z" transform="translate(-202.11 -490.38)" fill="#e7e2e1"/>
  <path id="Path_8" data-name="Path 8" d="M287.19,490.38h1.1v19.86h-1.1Z" transform="translate(-202.11 -490.38)" fill="#e7e2e1"/>
  <path id="Path_9" data-name="Path 9" d="M323.67,509.9a6.722,6.722,0,0,1-1.25.39,7,7,0,0,1-1.37.13,4.34,4.34,0,0,1-1.59-.28,4.26,4.26,0,0,1-1.33-.79,3.74,3.74,0,0,1-.92-1.21,3.43,3.43,0,0,1-.34-1.54,4.29,4.29,0,0,1,.31-1.59,5.209,5.209,0,0,1,.82-1.43,4.52,4.52,0,0,1,1.2-1,2.9,2.9,0,0,1,1.43-.39,2.71,2.71,0,0,1,1.79.64,5.88,5.88,0,0,1,1.33,1.72,7.87,7.87,0,0,1,.8,2.38,14.59,14.59,0,0,1,.22,2.56,9.591,9.591,0,0,1-.44,3,5,5,0,0,1-1.39,2.12,5.88,5.88,0,0,1-2.4,1.25c-1,.27-18.14.4-19.5.4q-6.87,0-6.87-5.76a10.1,10.1,0,0,1,.1-1.74c.1-.57.16-1.26.29-1.94h1c-.1.65-.17,1.25-.23,1.8s-.07,1.05-.08,1.52a6.711,6.711,0,0,0,.33,2.18,3.45,3.45,0,0,0,1,1.52,4.7,4.7,0,0,0,1.84.89c.75.19,17.65.29,18.72.29a13.274,13.274,0,0,0,2.88-.28,4.92,4.92,0,0,0,2-.88,3.71,3.71,0,0,0,1.15-1.59A8.19,8.19,0,0,0,323.67,509.9Zm-.09-1.18a8,8,0,0,0-.3-2.07,6.809,6.809,0,0,0-.68-1.68,3.671,3.671,0,0,0-.94-1.13,1.68,1.68,0,0,0-1.07-.41,1.84,1.84,0,0,0-.94.25,2.649,2.649,0,0,0-.79.66,3.46,3.46,0,0,0-.75,2.14,2.661,2.661,0,0,0,.23,1.11,2.36,2.36,0,0,0,.63.84,2.91,2.91,0,0,0,1,.55,3.911,3.911,0,0,0,1.23.19,5.9,5.9,0,0,0,2.41-.45Zm-3.89-9.58h-1.45v-1.37h1.45Zm2.59,0h-1.44v-1.37h1.44Z" transform="translate(-202.11 -490.38)" fill="#e7e2e1"/>
  <path id="Path_10" data-name="Path 10" d="M324.35,514.52a4.611,4.611,0,0,0,.75.21l.9.17c.31,0,.65.08,1,.1s10.69,0,11,0a7.485,7.485,0,0,0,1.7-.16,3.561,3.561,0,0,0,1.24-.52,3,3,0,0,0,.86-1,6.1,6.1,0,0,0,.57-1.43,5.212,5.212,0,0,1,.14-.65q.075-.4.12-.9H340.4a5.729,5.729,0,0,1-2-.32,4.13,4.13,0,0,1-1.39-.85,3.42,3.42,0,0,1-.84-1.22,3.56,3.56,0,0,1-.28-1.44,4.361,4.361,0,0,1,.3-1.591,5.339,5.339,0,0,1,.83-1.419,4.2,4.2,0,0,1,1.2-1,2.74,2.74,0,0,1,1.43-.39,2.63,2.63,0,0,1,1.79.64,5.81,5.81,0,0,1,1.32,1.71,6.139,6.139,0,0,1,.46,1.09,9.6,9.6,0,0,1,.31,1.2c.08.4.15.81.19,1.22s.06.79.07,1.13h1.62v1.26h-1.65a10.25,10.25,0,0,1-.52,2.69,5,5,0,0,1-1.12,1.82,4.291,4.291,0,0,1-1.74,1,7.4,7.4,0,0,1-2.38.33c-.72,0-11.4,0-12.07-.16l-.34-.06a1.59,1.59,0,0,1-1.28-1.55ZM342.13,506a6.544,6.544,0,0,0-.48-1,4.192,4.192,0,0,0-.59-.81,3.231,3.231,0,0,0-.68-.54,1.61,1.61,0,0,0-.74-.2,1.91,1.91,0,0,0-.94.25,2.68,2.68,0,0,0-.79.67,3.229,3.229,0,0,0-.54,1,3,3,0,0,0-.2,1.16,2.44,2.44,0,0,0,.23,1.1,2.38,2.38,0,0,0,.66.85,3.08,3.08,0,0,0,1.05.54,4.691,4.691,0,0,0,1.4.19h2.14v-.7a5.761,5.761,0,0,0-.09-.8,8.52,8.52,0,0,0-.17-.85,5.648,5.648,0,0,0-.24-.8Z" transform="translate(-202.11 -490.38)" fill="#e7e2e1"/>
  <path id="Path_11" data-name="Path 11" d="M381.4,503.18V506a3.29,3.29,0,0,0,.76,2.37,3.09,3.09,0,0,0,2.27.77,3.83,3.83,0,0,0,1.21-.19,2.429,2.429,0,0,0,.92-.56,2.55,2.55,0,0,0,.6-1,4.29,4.29,0,0,0,.21-1.42v-2.84h1.1V506a3.14,3.14,0,0,0,.82,2.41,3.42,3.42,0,0,0,2.38.75,2.75,2.75,0,0,0,2.11-.73,3.42,3.42,0,0,0,.65-2.31v-5h1.1v5a5.6,5.6,0,0,1-.28,1.86,3.61,3.61,0,0,1-.78,1.34,3.24,3.24,0,0,1-1.23.8,4.43,4.43,0,0,1-1.61.27,4.52,4.52,0,0,1-2.37-.54,3.6,3.6,0,0,1-1.34-1.45h-.05a3.93,3.93,0,0,1-1.37,1.49,3.83,3.83,0,0,1-2.07.5,5.7,5.7,0,0,1-1.16-.11,4.091,4.091,0,0,1-1-.32,3,3,0,0,1-.81-.59,2.71,2.71,0,0,1-.58-.87h-.05a3.07,3.07,0,0,1-1.23,1.5c-.52.3-36.16.45-36.93.45h-1.31c-.61,0-.91-.21-.91-.64a.5.5,0,0,1,.23-.45,1.17,1.17,0,0,1,.68-.17h1c1,0,36.72-.23,37.21-.69a3.07,3.07,0,0,0,.74-2.34v-3Z" transform="translate(-202.11 -490.38)" fill="#e7e2e1"/>
</svg>
